{
    "asset" : {
        "generator" : "Khronos glTF Blender I/O v1.7.33",
        "version" : "2.0"
    },
    "scene" : 0,
    "scenes" : [
        {
            "name" : "Scene",
            "nodes" : [
                0
            ]
        }
    ],
    "nodes" : [
        {
            "mesh" : 0,
            "name" : "Cube.001",
            "translation" : [
                -6.166982173919678,
                1.486615777015686,
                -4.781306743621826
            ]
        }
    ],
    "materials" : [
        {
            "doubleSided" : true,
            "name" : "Material.001",
            "pbrMetallicRoughness" : {
                "baseColorFactor" : [
                    0.015603948384523392,
                    0.3522217571735382,
                    0,
                    1
                ],
                "metallicFactor" : 0,
                "roughnessFactor" : 0.5
            }
        },
        {
            "doubleSided" : true,
            "name" : "Material.003",
            "pbrMetallicRoughness" : {}
        }
    ],
    "meshes" : [
        {
            "name" : "Cube.002",
            "primitives" : [
                {
                    "attributes" : {
                        "POSITION" : 0,
                        "NORMAL" : 1,
                        "TEXCOORD_0" : 2
                    },
                    "indices" : 3,
                    "material" : 0
                },
                {
                    "attributes" : {
                        "POSITION" : 4,
                        "NORMAL" : 5,
                        "TEXCOORD_0" : 6
                    },
                    "indices" : 7,
                    "material" : 1
                }
            ]
        }
    ],
    "accessors" : [
        {
            "bufferView" : 0,
            "componentType" : 5126,
            "count" : 2765,
            "max" : [
                2.347121000289917,
                0.4675467014312744,
                2.2797820568084717
            ],
            "min" : [
                -2.365100145339966,
                -0.10000002384185791,
                -2.28149151802063
            ],
            "type" : "VEC3"
        },
        {
            "bufferView" : 1,
            "componentType" : 5126,
            "count" : 2765,
            "type" : "VEC3"
        },
        {
            "bufferView" : 2,
            "componentType" : 5126,
            "count" : 2765,
            "type" : "VEC2"
        },
        {
            "bufferView" : 3,
            "componentType" : 5123,
            "count" : 14091,
            "type" : "SCALAR"
        },
        {
            "bufferView" : 4,
            "componentType" : 5126,
            "count" : 4352,
            "max" : [
                2.347121000289917,
                0.4625597894191742,
                2.2797820568084717
            ],
            "min" : [
                -2.365100145339966,
                -0.19999998807907104,
                -2.28149151802063
            ],
            "type" : "VEC3"
        },
        {
            "bufferView" : 5,
            "componentType" : 5126,
            "count" : 4352,
            "type" : "VEC3"
        },
        {
            "bufferView" : 6,
            "componentType" : 5126,
            "count" : 4352,
            "type" : "VEC2"
        },
        {
            "bufferView" : 7,
            "componentType" : 5123,
            "count" : 17571,
            "type" : "SCALAR"
        }
    ],
    "bufferViews" : [
        {
            "buffer" : 0,
            "byteLength" : 33180,
            "byteOffset" : 0
        },
        {
            "buffer" : 0,
            "byteLength" : 33180,
            "byteOffset" : 33180
        },
        {
            "buffer" : 0,
            "byteLength" : 22120,
            "byteOffset" : 66360
        },
        {
            "buffer" : 0,
            "byteLength" : 28182,
            "byteOffset" : 88480
        },
        {
            "buffer" : 0,
            "byteLength" : 52224,
            "byteOffset" : 116664
        },
        {
            "buffer" : 0,
            "byteLength" : 52224,
            "byteOffset" : 168888
        },
        {
            "buffer" : 0,
            "byteLength" : 34816,
            "byteOffset" : 221112
        },
        {
            "buffer" : 0,
            "byteLength" : 35142,
            "byteOffset" : 255928
        }
    ],
    "buffers" : [
        {
            "byteLength" : 291072,
            "uri" : "data:application/octet-stream;base64,"
        }
    ]
}
